<?xml version="1.0" encoding="UTF-8"?>
<!-- Generator: Adobe Illustrator 19.2.1, SVG Export Plug-In . SVG Version: 6.00 Build 0)  -->
<svg version="1.1" id="レイヤー_1" xmlns="http://www.w3.org/2000/svg" xmlns:xlink="http://www.w3.org/1999/xlink" x="0px" y="0px" viewBox="0 0 131.8 32.5" style="enable-background:new 0 0 131.8 32.5;" xml:space="preserve">
<style type="text/css">
	.st0{fill:#D81618;}
</style>
<g>
	<g>
		<path class="st0" d="M10.9,1.1L1.8,3.5C0.8,3.8,0.7,4.4,0.6,5c0,2.6,0,23.7,0,25.4c0,1.2,0.7,1,1.8,0.8L9,29.8    c0.9-0.2,1.3-0.8,1.3-2c0-1.2,0-3.7,0-3.7c3.3-0.9,8.1-2.5,11.2-6.2c1.8-2.1,2.4-3.5,2.7-7C24.6,5.8,19.3-1,10.9,1.1z M11.6,20.8    c-0.5,0.4-1.2,0.1-1.2-0.4c0-0.5,0-15.7,0-16.6c0-0.4,0.4-0.9,0.9-0.4c0.5,0.5,3.5,3.2,3.5,8.8C14.7,17.7,12,20.4,11.6,20.8z"/>
		<path class="st0" d="M40.6,13.2c-1.3,0.1-2.1,0.2-2.1,0.2c-0.9-0.5-5-1.2-7.6-0.6c-2.4,0.6-10.1,3.7-10.1,12    c0,5.5,4.2,6.8,6.9,6.8c2.7,0,4.8-1.1,5.9-1.2c0,0.9,0.3,1.4,1.7,1.2c1.4-0.2,4.1-0.8,5.5-1.2c1.4-0.3,1.5-0.9,1.5-2    c0-1.1,0-11.7,0-12.9C42.3,14,41.8,13.2,40.6,13.2z M33.9,26.3c0,0.9-0.5,1.3-1.3,1.3c-0.8,0-3.4-0.9-3.4-5.7c0-2.3,1-5.6,3-5.6    c1.7,0,1.7,1.8,1.7,2C33.9,19.4,33.9,25.4,33.9,26.3z"/>
		<path class="st0" d="M129.4,13.2c-1.3,0.1-2.1,0.2-2.1,0.2c-0.9-0.5-5-1.2-7.6-0.6c-2.4,0.6-10,3.7-10,12c0,5.5,4.2,6.8,6.9,6.8    c2.7,0,4.8-1.1,5.9-1.2c0,0.9,0.3,1.4,1.7,1.2c1.4-0.2,4.1-0.8,5.5-1.2c1.4-0.3,1.5-0.9,1.5-2c0-1.1,0-11.7,0-12.9    C131.2,14,130.7,13.2,129.4,13.2z M122.8,26.3c0,0.9-0.5,1.3-1.3,1.3c-0.8,0-3.4-0.9-3.4-5.7c0-2.3,1-5.6,3-5.6    c1.7,0,1.7,1.8,1.7,2C122.8,19.4,122.8,25.4,122.8,26.3z"/>
		<path class="st0" d="M55.9,26c-1.4,0-1.9-1.6-1.9-2.4c0-0.9,0-20.6,0-21.7c0-1.1-0.9-0.9-1.6-0.8c-0.8,0.1-4.5,0.8-5.7,1.2    C45.4,2.5,45,3.6,45,5.6c0,1.9,0,19.2,0,22.4c0,3.2,2.6,3.7,3.8,3.7c0,0,0.9,0,1.6-0.3c0.8-0.2,5.4-2.2,6.6-3    C58.2,27.5,58.2,26,55.9,26z"/>
		<path class="st0" d="M73.6,12.3c-1.2,0-2.2,1.2-4.5,2.4c-1.1,0.6-1.6,0.1-1.8-0.2c-0.5-0.5-1.1-1.7-2.5-1.7    c-1.4,0-7.1,2.1-7.1,8.9c0,5.2,3.8,10,10.9,10c7.1,0,11.1-5.1,11.1-10C79.8,16.8,76.6,12.3,73.6,12.3z M68.7,28.1    c-0.9,0-3.4-2.4-3.4-6.2c0-3.9,2.1-4.5,3.3-4.5c1.2,0,3.3,0.9,3.3,4.1C71.9,25.1,70.2,28.1,68.7,28.1z"/>
		<path class="st0" d="M10.9,1.1L1.8,3.5C0.8,3.8,0.7,4.4,0.6,5c0,2.6,0,23.7,0,25.4c0,1.2,0.7,1,1.8,0.8L9,29.8    c0.9-0.2,1.3-0.8,1.3-2c0-1.2,0-3.7,0-3.7c3.3-0.9,8.1-2.5,11.2-6.2c1.8-2.1,2.4-3.5,2.7-7C24.6,5.8,19.3-1,10.9,1.1z M11.6,20.8    c-0.5,0.4-1.2,0.1-1.2-0.4c0-0.5,0-15.7,0-16.6c0-0.4,0.4-0.9,0.9-0.4c0.5,0.5,3.5,3.2,3.5,8.8C14.7,17.7,12,20.4,11.6,20.8z"/>
		<path class="st0" d="M40.6,13.2c-1.3,0.1-2.1,0.2-2.1,0.2c-0.9-0.5-5-1.2-7.6-0.6c-2.4,0.6-10.1,3.7-10.1,12    c0,5.5,4.2,6.8,6.9,6.8c2.7,0,4.8-1.1,5.9-1.2c0,0.9,0.3,1.4,1.7,1.2c1.4-0.2,4.1-0.8,5.5-1.2c1.4-0.3,1.5-0.9,1.5-2    c0-1.1,0-11.7,0-12.9C42.3,14,41.8,13.2,40.6,13.2z M33.9,26.3c0,0.9-0.5,1.3-1.3,1.3c-0.8,0-3.4-0.9-3.4-5.7c0-2.3,1-5.6,3-5.6    c1.7,0,1.7,1.8,1.7,2C33.9,19.4,33.9,25.4,33.9,26.3z"/>
		<path class="st0" d="M129.4,13.2c-1.3,0.1-2.1,0.2-2.1,0.2c-0.9-0.5-5-1.2-7.6-0.6c-2.4,0.6-10,3.7-10,12c0,5.5,4.2,6.8,6.9,6.8    c2.7,0,4.8-1.1,5.9-1.2c0,0.9,0.3,1.4,1.7,1.2c1.4-0.2,4.1-0.8,5.5-1.2c1.4-0.3,1.5-0.9,1.5-2c0-1.1,0-11.7,0-12.9    C131.2,14,130.7,13.2,129.4,13.2z M122.8,26.3c0,0.9-0.5,1.3-1.3,1.3c-0.8,0-3.4-0.9-3.4-5.7c0-2.3,1-5.6,3-5.6    c1.7,0,1.7,1.8,1.7,2C122.8,19.4,122.8,25.4,122.8,26.3z"/>
		<path class="st0" d="M55.9,26c-1.4,0-1.9-1.6-1.9-2.4c0-0.9,0-20.6,0-21.7c0-1.1-0.9-0.9-1.6-0.8c-0.8,0.1-4.5,0.8-5.7,1.2    C45.4,2.5,45,3.6,45,5.6c0,1.9,0,19.2,0,22.4c0,3.2,2.6,3.7,3.8,3.7c0,0,0.9,0,1.6-0.3c0.8-0.2,5.4-2.2,6.6-3    C58.2,27.5,58.2,26,55.9,26z"/>
		<path class="st0" d="M73.6,12.3c-1.2,0-2.2,1.2-4.5,2.4c-1.1,0.6-1.6,0.1-1.8-0.2c-0.5-0.5-1.1-1.7-2.5-1.7    c-1.4,0-7.1,2.1-7.1,8.9c0,5.2,3.8,10,10.9,10c7.1,0,11.1-5.1,11.1-10C79.8,16.8,76.6,12.3,73.6,12.3z M68.7,28.1    c-0.9,0-3.4-2.4-3.4-6.2c0-3.9,2.1-4.5,3.3-4.5c1.2,0,3.3,0.9,3.3,4.1C71.9,25.1,70.2,28.1,68.7,28.1z"/>
		<path class="st0" d="M102.6,13.4c-0.8,0-5.5,0.9-4.8,0.7c0-0.4-1.3-1.3-2.7-1.2c-1.2,0.1-4.1,0.9-4.7,1c-0.5,0.1-0.7,0.1-1.2,0.1    c0-0.8-1.1-1.2-1.6-1.1c-0.5,0.1-4.2,0.9-5.1,1.1c-0.9,0.2-1.2,0.8-1.2,1.5c0,0.8,0,13.5,0,14.6c0,1.1,0.9,1.4,1.7,1.3    c0.9-0.1,3.3-0.7,4.3-0.9c1-0.3,1.6-0.7,1.6-2.1c0-1.4,0-7.4,0-9.7c0-2,1.7-2,1.7,0c0,0.7,0,9,0,11.2c0,2.3,1.5,1.6,2,1.5    c0.5-0.1,2.9-0.5,3.8-0.8c0.9-0.3,1.1-1.9,1.1-2.7c0-0.8,0-9.1,0-9.9c0-1.7,1.7-1.7,1.7-0.1c0,0.8,0,10.8,0,12    c0,1.3,1.3,1.3,1.9,1.1c0.6-0.2,3.5-0.5,4.3-0.8c0.8-0.3,1.9-1.4,1.9-2.6c0-1.2,0.2-6.9-0.3-10C106.5,14.6,104.8,13.4,102.6,13.4z    "/>
	</g>
</g>
</svg>